REM DIRINDEX 1\2,1\3,1\4,1\5,1\6
REM DIRNAME folder01,folder02,folder03,folder04,folder05,folder06
TITLE ""
FILE "Disc6Track18.mp3" MP3
  TRACK 01 AUDIO
    TITLE "3:cjc030_10948"
    INDEX 01 00:00:00
  TRACK 02 AUDIO
    TITLE "0:"
    INDEX 01 00:01:15
  TRACK 03 AUDIO
    TITLE "4:cjc030_10949"
    INDEX 01 00:01:26
  TRACK 04 AUDIO
    TITLE "0:"
    INDEX 01 00:02:43
  TRACK 05 AUDIO
    TITLE "5:cjc030_10950"
    INDEX 01 00:02:51
  TRACK 06 AUDIO
    TITLE "0:"
    INDEX 01 00:03:74
  TRACK 07 AUDIO
    TITLE "6:cjc030_10951"
    INDEX 01 00:04:11
  TRACK 08 AUDIO
    TITLE "0:"
    INDEX 01 00:06:12
  TRACK 09 AUDIO
    TITLE "3:cjc030_10952"
    INDEX 01 00:06:57
  TRACK 10 AUDIO
    TITLE "0:"
    INDEX 01 00:08:09
  TRACK 11 AUDIO
    TITLE "4:cjc030_10953"
    INDEX 01 00:08:21
  TRACK 12 AUDIO
    TITLE "0:"
    INDEX 01 00:09:45
  TRACK 13 AUDIO
    TITLE "5:cjc030_10954"
    INDEX 01 00:09:55
  TRACK 14 AUDIO
    TITLE "0:"
    INDEX 01 00:11:09
  TRACK 15 AUDIO
    TITLE "6:cjc030_10955"
    INDEX 01 00:11:21
  TRACK 16 AUDIO
    TITLE "0:"
    INDEX 01 00:13:24
  TRACK 17 AUDIO
    TITLE "3:cjc030_10956"
    INDEX 01 00:13:73
  TRACK 18 AUDIO
    TITLE "0:"
    INDEX 01 00:15:17
  TRACK 19 AUDIO
    TITLE "4:cjc030_10957"
    INDEX 01 00:15:28
  TRACK 20 AUDIO
    TITLE "0:"
    INDEX 01 00:17:51
  TRACK 21 AUDIO
    TITLE "5:cjc030_10958"
    INDEX 01 00:17:59
  TRACK 22 AUDIO
    TITLE "0:"
    INDEX 01 00:19:05
  TRACK 23 AUDIO
    TITLE "6:cjc030_10959"
    INDEX 01 00:19:16
  TRACK 24 AUDIO
    TITLE "0:"
    INDEX 01 00:25:39
  TRACK 25 AUDIO
    TITLE "3:cjc030_10960"
    INDEX 01 00:26:09
  TRACK 26 AUDIO
    TITLE "0:"
    INDEX 01 00:27:18
  TRACK 27 AUDIO
    TITLE "4:cjc030_10961"
    INDEX 01 00:27:30
  TRACK 28 AUDIO
    TITLE "0:"
    INDEX 01 00:28:49
  TRACK 29 AUDIO
    TITLE "5:cjc030_10962"
    INDEX 01 00:28:57
  TRACK 30 AUDIO
    TITLE "0:"
    INDEX 01 00:29:68
  TRACK 31 AUDIO
    TITLE "6:cjc030_10963"
    INDEX 01 00:30:06
  TRACK 32 AUDIO
    TITLE "0:"
    INDEX 01 00:32:60
  TRACK 33 AUDIO
    TITLE "3:cjc030_10964"
    INDEX 01 00:33:32
  TRACK 34 AUDIO
    TITLE "0:"
    INDEX 01 00:34:36
  TRACK 35 AUDIO
    TITLE "4:cjc030_10965"
    INDEX 01 00:34:45
  TRACK 36 AUDIO
    TITLE "0:"
    INDEX 01 00:35:74
  TRACK 37 AUDIO
    TITLE "5:cjc030_10966"
    INDEX 01 00:36:09
  TRACK 38 AUDIO
    TITLE "0:"
    INDEX 01 00:37:14
  TRACK 39 AUDIO
    TITLE "3:cjc030_10967"
    INDEX 01 00:37:65
  TRACK 40 AUDIO
    TITLE "0:"
    INDEX 01 00:38:73
  TRACK 41 AUDIO
    TITLE "4:cjc030_10968"
    INDEX 01 00:39:07
  TRACK 42 AUDIO
    TITLE "0:"
    INDEX 01 00:42:08
  TRACK 43 AUDIO
    TITLE "5:cjc030_10969"
    INDEX 01 00:42:18
  TRACK 44 AUDIO
    TITLE "0:"
    INDEX 01 00:43:21
  TRACK 45 AUDIO
    TITLE "6:cjc030_10970"
    INDEX 01 00:43:35
  TRACK 46 AUDIO
    TITLE "0:"
    INDEX 01 00:46:51
  TRACK 47 AUDIO
    TITLE "3:cjc030_10971"
    INDEX 01 00:47:23
  TRACK 48 AUDIO
    TITLE "0:"
    INDEX 01 00:48:38
  TRACK 49 AUDIO
    TITLE "4:cjc030_10972"
    INDEX 01 00:48:49
  TRACK 50 AUDIO
    TITLE "0:"
    INDEX 01 00:51:16
  TRACK 51 AUDIO
    TITLE "5:cjc030_10973"
    INDEX 01 00:51:24
  TRACK 52 AUDIO
    TITLE "0:"
    INDEX 01 00:52:43
  TRACK 53 AUDIO
    TITLE "6:cjc030_10974"
    INDEX 01 00:52:53
  TRACK 54 AUDIO
    TITLE "0:"
    INDEX 01 00:56:06
  TRACK 55 AUDIO
    TITLE "3:cjc030_10975"
    INDEX 01 00:56:51
  TRACK 56 AUDIO
    TITLE "0:"
    INDEX 01 00:57:64
  TRACK 57 AUDIO
    TITLE "4:cjc030_10976"
    INDEX 01 00:57:72
  TRACK 58 AUDIO
    TITLE "0:"
    INDEX 01 00:59:14
  TRACK 59 AUDIO
    TITLE "5:cjc030_10977"
    INDEX 01 00:59:20
  TRACK 60 AUDIO
    TITLE "0:"
    INDEX 01 01:00:35
  TRACK 61 AUDIO
    TITLE "6:cjc030_10978"
    INDEX 01 01:00:47
  TRACK 62 AUDIO
    TITLE "0:"
    INDEX 01 01:06:24
  TRACK 63 AUDIO
    TITLE "3:cjc030_10979"
    INDEX 01 01:06:71
  TRACK 64 AUDIO
    TITLE "0:"
    INDEX 01 01:08:15
  TRACK 65 AUDIO
    TITLE "4:cjc030_10980"
    INDEX 01 01:08:23
  TRACK 66 AUDIO
    TITLE "0:"
    INDEX 01 01:11:29
  TRACK 67 AUDIO
    TITLE "5:cjc030_10981"
    INDEX 01 01:11:39
  TRACK 68 AUDIO
    TITLE "0:"
    INDEX 01 01:12:56
  TRACK 69 AUDIO
    TITLE "6:cjc030_10982"
    INDEX 01 01:12:70
  TRACK 70 AUDIO
    TITLE "0:"
    INDEX 01 01:16:42
  TRACK 71 AUDIO
    TITLE "6:cjc030_10983"
    INDEX 01 01:17:00
  TRACK 72 AUDIO
    TITLE "0:"
    INDEX 01 01:23:03
  TRACK 73 AUDIO
    TITLE "3:cjc030_10984"
    INDEX 01 01:23:52
  TRACK 74 AUDIO
    TITLE "0:"
    INDEX 01 01:25:09
  TRACK 75 AUDIO
    TITLE "4:cjc030_10985"
    INDEX 01 01:25:21
  TRACK 76 AUDIO
    TITLE "0:"
    INDEX 01 01:27:71
  TRACK 77 AUDIO
    TITLE "5:cjc030_10986"
    INDEX 01 01:28:06
  TRACK 78 AUDIO
    TITLE "0:"
    INDEX 01 01:29:39
